<svg preserveAspectRatio="none" width="100%" height="100%" overflow="visible" style="display: block;" viewBox="0 0 63.9977 63.9977" fill="none" xmlns="http://www.w3.org/2000/svg">
<g id="Icon">
<path id="Vector" d="M58.6645 31.9988H42.6651L37.332 39.9985H26.6657L21.3326 31.9988H5.33314" stroke="var(--stroke-0, #99A1AF)" stroke-width="3.99985" stroke-linecap="round" stroke-linejoin="round"/>
<path id="Vector_2" d="M14.5328 13.6262L5.33314 31.9988V47.9983C5.33314 49.4127 5.89502 50.7692 6.89518 51.7694C7.89534 52.7695 9.25184 53.3314 10.6663 53.3314H53.3314C54.7458 53.3314 56.1023 52.7695 57.1025 51.7694C58.1026 50.7692 58.6645 49.4127 58.6645 47.9983V31.9988L49.4649 13.6262C49.0233 12.7376 48.3427 11.9899 47.4995 11.467C46.6563 10.9441 45.6839 10.6668 44.6917 10.6663H19.306C18.3138 10.6668 17.3414 10.9441 16.4982 11.467C15.655 11.9899 14.9743 12.7376 14.5328 13.6262Z" stroke="var(--stroke-0, #99A1AF)" stroke-width="3.99985" stroke-linecap="round" stroke-linejoin="round"/>
</g>
</svg>
