<svg preserveAspectRatio="none" width="100%" height="100%" overflow="visible" style="display: block;" viewBox="0 0 19.9952 19.9952" fill="none" xmlns="http://www.w3.org/2000/svg">
<g id="Icon">
<path id="Vector" d="M9.99758 10.8307C10.4577 10.8307 10.8307 10.4577 10.8307 9.99758C10.8307 9.53745 10.4577 9.16444 9.99758 9.16444C9.53745 9.16444 9.16444 9.53745 9.16444 9.99758C9.16444 10.4577 9.53745 10.8307 9.99758 10.8307Z" stroke="var(--stroke-0, #8A8FA8)" stroke-width="1.66626" stroke-linecap="round" stroke-linejoin="round"/>
<path id="Vector_2" d="M15.8295 10.8307C16.2896 10.8307 16.6626 10.4577 16.6626 9.99758C16.6626 9.53745 16.2896 9.16444 15.8295 9.16444C15.3694 9.16444 14.9964 9.53745 14.9964 9.99758C14.9964 10.4577 15.3694 10.8307 15.8295 10.8307Z" stroke="var(--stroke-0, #8A8FA8)" stroke-width="1.66626" stroke-linecap="round" stroke-linejoin="round"/>
<path id="Vector_3" d="M4.16566 10.8307C4.62578 10.8307 4.99879 10.4577 4.99879 9.99758C4.99879 9.53745 4.62578 9.16444 4.16566 9.16444C3.70553 9.16444 3.33253 9.53745 3.33253 9.99758C3.33253 10.4577 3.70553 10.8307 4.16566 10.8307Z" stroke="var(--stroke-0, #8A8FA8)" stroke-width="1.66626" stroke-linecap="round" stroke-linejoin="round"/>
</g>
</svg>
